<?xml version="1.0" encoding="utf-8"?>
<!-- Generator: Adobe Adobe Illustrator 24.2.0, SVG Export Plug-In . SVG Version: 6.00 Build 0)  -->
<svg version="1.1" xmlns="http://www.w3.org/2000/svg" xmlns:xlink="http://www.w3.org/1999/xlink" x="0px" y="0px"
	 width="257.95px" height="172.91px" viewBox="0 0 257.95 172.91" style="enable-background:new 0 0 257.95 172.91;"
	 xml:space="preserve">
<style type="text/css">
	.st0{fill:#08757A;}
	.st1{fill:#003135;}
	.st2{fill:#091C27;}
	.st3{fill:#D5D6D5;}
	.st4{fill:none;}
	.st5{fill:#FFFFFF;}
</style>
<g id="Img">
</g>
<g id="V">
	<g>
		<g>
			<g>
				<polygon class="st1" points="91.92,87.96 127.94,109.61 164,88.04 164,47.59 178.94,38.73 179.03,95.38 127.94,126.25 
					77.03,95.9 77.03,38.73 91.88,47.52 				"/>
				<polygon class="st1" points="91.92,88.35 127.94,110 164,88.43 164,47.98 178.94,39.12 179.03,95.77 127.94,126.64 77.03,96.29 
					77.03,39.12 91.88,47.91 				"/>
				<path class="st0" d="M77.03,38.73l14.85,8.79l36.06-21.6L164,47.59l14.94-8.86l-51-30.25C127.94,8.48,77.12,38.63,77.03,38.73z"
					/>
				<polygon class="st2" points="91.88,47.52 91.92,87.96 127.99,109.64 164,88.04 164,47.59 128.05,25.92 				"/>
			</g>
		</g>
	</g>
	<polyline class="st3" points="143.66,74.81 135.82,87.69 131.57,80.16 144.24,59.05 133.94,58.89 135.09,58.46 159.22,49.27 
		143.66,74.81 	"/>
	<path class="st5" d="M126.63,58.83c0,0-12.76,0.18-12.86-0.02c-0.11-0.2,19.75,33.32,19.75,33.32l-4.54,7.09L98.68,49"/>
</g>
</svg>
